<svg viewBox="414.26042983565105 0 130.4920353982301 234.00944" xmlns="http://www.w3.org/2000/svg" style="max-height: 500px" width="130.4920353982301" height="234.00944"><defs><style>.cls-1{fill:#fff;}.cls-1,.cls-2,.cls-3,.cls-4{stroke:#1d1d1b;stroke-miterlimit:10;}.cls-2,.cls-5{fill:#1d1d1b;}.cls-3,.cls-4{fill:#575756;}.cls-4{stroke-width:3px;}</style></defs><g data-name="Ebene 2" id="Ebene_2"><g data-name="Ebene 2" id="Ebene_2-2"><rect rx="15.86" height="230.48" width="123" y="285.9" x="695.7" class="cls-1"/><rect rx="15.86" height="230.48" width="123" y="285.9" x="280.28" class="cls-1"/><rect rx="15.86" height="230.48" width="123" y="285.44" x="0.5" class="cls-1"/><rect rx="15.86" height="230.48" width="123" y="286.74" x="417.38" class="cls-1"/><rect rx="15.86" height="230.48" width="123" y="286.74" x="556.54" class="cls-1"/><rect rx="15.86" height="230.48" width="123" y="286.74" x="138.89" class="cls-1"/></g><g data-name="Ebene 1" id="Ebene_1-2"><path d="M248.68,285.9H152.1a13,13,0,0,0-13.21,12.74v205a13,13,0,0,0,13.21,12.74h96.58a13,13,0,0,0,13.2-12.74v-205A13,13,0,0,0,248.68,285.9ZM258,501.31a11.45,11.45,0,0,1-11.65,11.24H154.47a11.45,11.45,0,0,1-11.65-11.24V301a11.45,11.45,0,0,1,11.65-11.24H246.3A11.45,11.45,0,0,1,258,301Z" class="cls-2"/><rect rx="6.82" height="14.43" width="65.54" y="286.98" x="166.37" class="cls-2"/><ellipse ry="2.36" rx="2.37" cy="294.82" cx="181.18" class="cls-3"/><ellipse ry="3.44" rx="3.45" cy="294.67" cx="172.86" class="cls-3"/><rect rx="1.5" height="3" width="23.61" y="293.17" x="187.46" class="cls-3"/><ellipse ry="2.36" rx="2.37" cy="294.82" cx="221.03" class="cls-3"/><path d="M389.17,286.07H292.59a13,13,0,0,0-13.21,12.74v205a13,13,0,0,0,13.21,12.75h96.58a13,13,0,0,0,13.21-12.75v-205A13,13,0,0,0,389.17,286.07Zm9.27,215.4a11.48,11.48,0,0,1-11.67,11.26H295a11.48,11.48,0,0,1-11.68-11.26V301.15A11.48,11.48,0,0,1,295,289.89h91.78a11.47,11.47,0,0,1,11.67,11.26Z" class="cls-2"/><rect rx="6.82" height="14.43" width="54.45" y="286.75" x="314.56" class="cls-2"/><ellipse ry="3.44" rx="3.45" cy="295.15" cx="322.83" class="cls-3"/><rect rx="1.5" height="3" width="23.61" y="293.5" x="329.07" class="cls-3"/><ellipse ry="2.36" rx="2.37" cy="295.15" cx="359.82" class="cls-3"/><path d="M527.17,286.52H430.58a13,13,0,0,0-13.2,12.74v205A13,13,0,0,0,430.58,517h96.59a13,13,0,0,0,13.2-12.75v-205A13,13,0,0,0,527.17,286.52Zm9.27,215.4a11.48,11.48,0,0,1-11.67,11.26H433a11.48,11.48,0,0,1-11.67-11.26V301.6A11.47,11.47,0,0,1,433,290.34h91.79a11.47,11.47,0,0,1,11.67,11.26Z" class="cls-2"/><ellipse ry="3.9" rx="3.91" cy="300.5" cx="526.68" class="cls-4"/><path d="M110.29,285.9H13.71A13,13,0,0,0,.5,298.64v205a13,13,0,0,0,13.21,12.74h96.58a13,13,0,0,0,13.21-12.74v-205A13,13,0,0,0,110.29,285.9Zm9.27,215.88a11,11,0,0,1-11.16,10.77H15.6A11,11,0,0,1,4.44,501.78V300.49A11,11,0,0,1,15.6,289.72h92.8a11,11,0,0,1,11.16,10.77Z" class="cls-2"/><rect rx="4.6" height="9.21" width="24.37" y="296.58" x="9.66" class="cls-2"/><ellipse ry="3.9" rx="3.91" cy="301.18" cx="28.91" class="cls-4"/><ellipse ry="3.9" rx="3.91" cy="301.18" cx="15.08" class="cls-4"/><path d="M666.33,286.74H569.75a13,13,0,0,0-13.21,12.75v205a13,13,0,0,0,13.21,12.74h96.58a13,13,0,0,0,13.21-12.74v-205A13,13,0,0,0,666.33,286.74Zm9.27,215.4a11.47,11.47,0,0,1-11.67,11.26H572.15a11.47,11.47,0,0,1-11.67-11.26V301.82a11.47,11.47,0,0,1,11.67-11.26h91.78a11.48,11.48,0,0,1,11.67,11.26Z" class="cls-2"/><path d="M588,290.77c29.6,0,19.37,11.67,29.6,11.67,10.08,0,0-11.67,29.61-11.67" class="cls-5"/><ellipse ry="3.9" rx="3.91" cy="296.6" cx="617.6" class="cls-4"/><path d="M805.49,285.9H708.91a13,13,0,0,0-13.21,12.74v205a13,13,0,0,0,13.21,12.74h96.58a13,13,0,0,0,13.21-12.74v-205A13,13,0,0,0,805.49,285.9Zm9.27,215.39a11.47,11.47,0,0,1-11.67,11.26H711.31a11.47,11.47,0,0,1-11.67-11.26V301a11.47,11.47,0,0,1,11.67-11.26h91.78A11.47,11.47,0,0,1,814.76,301Z" class="cls-2"/><path d="M248.68.5H152.1a13,13,0,0,0-13.21,12.74v205A13,13,0,0,0,152.1,231h96.58a13,13,0,0,0,13.2-12.75v-205A13,13,0,0,0,248.68.5ZM258,215.92a11.46,11.46,0,0,1-11.65,11.24H154.47a11.46,11.46,0,0,1-11.65-11.24V15.56A11.45,11.45,0,0,1,154.47,4.32H246.3A11.45,11.45,0,0,1,258,15.56Z" class="cls-2"/><rect rx="6.82" height="14.43" width="65.54" y="1.59" x="166.37" class="cls-2"/><ellipse ry="2.36" rx="2.37" cy="9.42" cx="181.18" class="cls-3"/><ellipse ry="3.44" rx="3.45" cy="9.27" cx="172.86" class="cls-3"/><rect rx="1.5" height="3" width="23.61" y="7.77" x="187.46" class="cls-3"/><ellipse ry="2.36" rx="2.37" cy="9.42" cx="221.03" class="cls-3"/><path d="M389.17.67H292.59a13,13,0,0,0-13.21,12.75v205a13,13,0,0,0,13.21,12.74h96.58a13,13,0,0,0,13.21-12.74v-205A13,13,0,0,0,389.17.67Zm9.27,215.4a11.47,11.47,0,0,1-11.67,11.26H295a11.48,11.48,0,0,1-11.68-11.26V15.76A11.48,11.48,0,0,1,295,4.49h91.78a11.48,11.48,0,0,1,11.67,11.27Z" class="cls-2"/><rect rx="6.82" height="14.43" width="54.45" y="1.36" x="314.56" class="cls-2"/><ellipse ry="3.44" rx="3.45" cy="9.75" cx="322.83" class="cls-3"/><rect rx="1.5" height="3" width="23.61" y="8.1" x="329.07" class="cls-3"/><ellipse ry="2.36" rx="2.37" cy="9.75" cx="359.82" class="cls-3"/><path d="M527.17,1.12H430.58a13,13,0,0,0-13.2,12.75v205a13,13,0,0,0,13.2,12.74h96.59a13,13,0,0,0,13.2-12.74v-205A13,13,0,0,0,527.17,1.12Zm9.27,215.4a11.47,11.47,0,0,1-11.67,11.26H433a11.47,11.47,0,0,1-11.67-11.26V16.21A11.48,11.48,0,0,1,433,4.94h91.79a11.48,11.48,0,0,1,11.67,11.27Z" class="cls-2"/><ellipse ry="3.9" rx="3.91" cy="15.11" cx="526.68" class="cls-4"/><path d="M110.29.5H13.71A13,13,0,0,0,.5,13.24v205A13,13,0,0,0,13.71,231h96.58a13,13,0,0,0,13.21-12.75v-205A13,13,0,0,0,110.29.5Zm9.27,215.89a11,11,0,0,1-11.16,10.77H15.6A11,11,0,0,1,4.44,216.39V15.09A11,11,0,0,1,15.6,4.32h92.8a11,11,0,0,1,11.16,10.77Z" class="cls-2"/><rect rx="4.6" height="9.21" width="24.37" y="11.18" x="9.66" class="cls-2"/><ellipse ry="3.9" rx="3.91" cy="15.79" cx="28.91" class="cls-4"/><ellipse ry="3.9" rx="3.91" cy="15.79" cx="15.08" class="cls-4"/><path d="M666.33,1.35H569.75a13,13,0,0,0-13.21,12.74v205a13,13,0,0,0,13.21,12.74h96.58a13,13,0,0,0,13.21-12.74v-205A13,13,0,0,0,666.33,1.35Zm9.27,215.39A11.47,11.47,0,0,1,663.93,228H572.15a11.47,11.47,0,0,1-11.67-11.26V16.43A11.47,11.47,0,0,1,572.15,5.17h91.78A11.47,11.47,0,0,1,675.6,16.43Z" class="cls-2"/><path d="M588,5.38C617.6,5.38,607.37,17,617.6,17c10.08,0,0-11.66,29.61-11.66" class="cls-5"/><ellipse ry="3.9" rx="3.91" cy="11.21" cx="617.6" class="cls-4"/><path d="M805.49.5H708.91A13,13,0,0,0,695.7,13.24v205A13,13,0,0,0,708.91,231h96.58a13,13,0,0,0,13.21-12.75v-205A13,13,0,0,0,805.49.5Zm9.27,215.4a11.47,11.47,0,0,1-11.67,11.26H711.31a11.47,11.47,0,0,1-11.67-11.26V15.58A11.47,11.47,0,0,1,711.31,4.32h91.78a11.47,11.47,0,0,1,11.67,11.26Z" class="cls-2"/></g></g></svg>